# xmcd
#
# Track frame offsets: 
#        187
#        14890
#        28275
#        41087
#        64640
#        80470
#        106480
#        132395
#        158722
#        170745
#        186455
#        212372
#        254290
#        269340
#        294000
#        307055
#
# Disc length: 4423 seconds
#
# Revision: 1
# Processed by: cddbd v1.5.2PL0 Copyright (c) Steve Scherf et al.
# Submitted via: ExactAudioCopy v0.99pb4
#
DISCID=ed114510
DTITLE=Steppenwolf - 1st Album and Monster
DYEAR=1968
DGENRE=Blues
TTITLE0=Sookie Sookie
TTITLE1=Everybody`s Next One
TTITLE2=Berry Rides Again
TTITLE3=Hoochie Coochie Man
TTITLE4=Born To Be Wild
TTITLE5=Your Wall`s Too High
TTITLE6=Desperation
TTITLE7=The Pusher
TTITLE8=A Girl I Knew
TTITLE9=Take What You Need
TTITLE10=The Ostrich
TTITLE11=Monster-Suicide-America
TTITLE12=Draft Resister
TTITLE13=Power Play
TTITLE14=Fag
TTITLE15=From Here To There Eventually
EXTD=
EXTT0=
EXTT1=
EXTT2=
EXTT3=
EXTT4=
EXTT5=
EXTT6=
EXTT7=
EXTT8=
EXTT9=
EXTT10=
EXTT11=
EXTT12=
EXTT13=
EXTT14=
EXTT15=
PLAYORDER=
